<svg id="fc925235-illustration"
  xmlns="http://www.w3.org/2000/svg" viewBox="0 0 350 350">
  <defs>
    <style>.cls-fc925235-1{fill:none;}.face__bg{fill:#ececeb;}.cls-fc925235-3{clip-path:url(#fc925235-clip-path);}.cls-fc925235-4{fill:#dfbda5;}.cls-fc925235-10,.cls-fc925235-11,.cls-fc925235-12,.cls-fc925235-13,.cls-fc925235-14,.cls-fc925235-15,.cls-fc925235-16,.cls-fc925235-4,.cls-fc925235-5,.cls-fc925235-6,.cls-fc925235-7,.cls-fc925235-8{fill-rule:evenodd;}.cls-fc925235-5{fill:#474747;}.cls-fc925235-6{fill:#e8cab6;}.cls-fc925235-7{fill:#8b6651;}.cls-fc925235-17,.cls-fc925235-8{fill:#c3987b;}.cls-fc925235-9{fill:#594165;}.cls-fc925235-10{fill:#6f7173;}.cls-fc925235-11{fill:#8f8f8f;}.cls-fc925235-12{fill:#fefefe;}.cls-fc925235-13{fill:#96637c;}.cls-fc925235-14{fill:#734d60;}.cls-fc925235-15{fill:#543042;}.cls-fc925235-16{fill:#b3889d;}.cls-fc925235-18{fill:#785d88;}.cls-fc925235-19{fill:#2b2b2b;}</style>
    <clipPath id="fc925235-clip-path">
      <circle class="cls-fc925235-1" cx="175" cy="175" r="175"/>
    </clipPath>
  </defs>
  <circle class="face__bg" cx="175" cy="175" r="175"/>
  <g class="cls-fc925235-3">
    <polygon class="cls-fc925235-4" points="210.02 100.05 226.89 81.81 246.08 78.19 253.31 96.36 253.87 120.93 273.95 231.2 223.54 244.02 163.56 248.15 134.42 144.15 128.59 95.13 170.14 90.1 210.02 100.05"/>
    <polygon class="cls-fc925235-5" points="194.43 126.62 151.8 113.51 149.07 123.89 186.78 135.91 194.43 126.62"/>
    <polygon class="cls-fc925235-5" points="215.48 114.81 235.7 101.14 248.81 115.9 241.16 121.91 232.15 111.53 220.4 121.36 215.48 114.81"/>
    <polygon class="cls-fc925235-6" points="215.48 133.38 224.77 179.84 217.35 184.85 207.28 184.21 199.63 135.57 215.48 133.38"/>
    <polygon class="cls-fc925235-7" points="242.25 209.09 209.12 211.31 183.35 203.45 187.58 193.2 173.41 202.26 177.09 220.02 182.06 210.46 209.12 218.31 242.25 209.09"/>
    <polygon class="cls-fc925235-8" points="128.59 95.13 104 125.19 110.96 148.52 128.04 177.1 120.35 179.17 116.02 187.49 106.95 180.95 99.63 165.08 91.48 177.58 81.59 183.11 96.26 195.19 102.91 209.89 107.15 219.13 109.33 237.68 119.85 283.12 211.65 278.75 211.65 258.53 273.95 231.2 163.56 248.15 141.15 139.4 128.59 95.13"/>
    <polygon class="cls-fc925235-5" points="104 125.19 128.04 177.1 116.02 187.49 99.63 165.08 81.59 183.11 59.19 171.64 104 125.19"/>
    <polygon class="cls-fc925235-9" points="139.32 133.07 73.17 178.8 81.59 183.11 144.18 153.32 139.32 133.07"/>
    <polygon class="cls-fc925235-4" points="116.02 187.49 119.85 196.23 102.91 209.89 81.59 183.11 99.63 165.08 116.02 187.49"/>
    <polygon class="cls-fc925235-5" points="254.19 122.67 261.39 69.45 246.08 78.19 254.19 122.67"/>
    <polygon class="cls-fc925235-10" points="210.02 100.05 261.39 69.45 206.74 35.02 202.5 70.67 210.02 100.05"/>
    <polygon class="cls-fc925235-11" points="210.02 100.05 206.74 35.02 64.65 88.58 95.3 97.94 128.59 95.13 210.02 100.05"/>
    <polygon class="cls-fc925235-10" points="64.65 88.58 59.19 171.64 83.98 150.71 104 125.19 128.59 95.13 64.65 88.58"/>
    <polygon class="cls-fc925235-7" points="91.43 184.21 97.99 177.65 106.18 191.31 91.43 184.21"/>
    <polygon class="cls-fc925235-7" points="102.91 209.89 114.93 200.06 109.53 238.55 102.91 209.89"/>
    <polygon class="cls-fc925235-7" points="144.64 250.59 273.95 231.2 211.65 258.53 211.65 278.75 172.77 269.51 144.64 250.59"/>
    <polygon class="cls-fc925235-7" points="224.77 179.84 217.12 192.41 207.28 184.21 224.77 179.84"/>
    <polygon class="cls-fc925235-12" points="119.85 283.12 196.9 340.5 211.65 278.75 119.85 283.12"/>
    <path class="cls-fc925235-13" d="M87.06,349.84c6.3,1.75,12.45,4.73,18.47,7.25l3.44,1.45c2.51-.28,5-.5,7.54-.62,8-.36,16.15.48,24.1.92,10.11.57,20.18,1.38,30.22,2.37L196.9,340.5l-77.05-57.38-53,29L75,347.56A82,82,0,0,1,87.06,349.84Z"/>
    <polygon class="cls-fc925235-13" points="211.65 278.75 280.08 297.56 269.54 325.32 263.1 354.06 232.63 345.99 196.9 340.5 211.65 278.75"/>
    <path class="cls-fc925235-14" d="M199.36,364.46l-2.46-24-29.32,20.41Q183.51,362.43,199.36,364.46Z"/>
    <path class="cls-fc925235-15" d="M220.49,367.28c14.25.18,28.51.19,42.75-.3l-5.76-22.75L196.9,340.5l1.23,23.81Q209.32,365.72,220.49,367.28Z"/>
    <path class="cls-fc925235-16" d="M281.12,366.08c5.15-2.53,10.31-5,15.61-7.28l-16.65-61.24-22.6,46.67,2.19,22.86C266.83,366.89,274,366.57,281.12,366.08Z"/>
    <path class="cls-fc925235-16" d="M63.25,346.63A148.45,148.45,0,0,1,78.34,348l-11.5-35.94L54.29,346.62C57.26,346.49,60.25,346.48,63.25,346.63Z"/>
    <polygon class="cls-fc925235-8" points="144.64 250.59 119.85 283.12 211.65 278.75 144.64 250.59"/>
    <polygon class="cls-fc925235-17" points="155.56 165.27 159.42 145.55 189.93 139.35 192.19 132.42 148.54 137.01 155.56 165.27"/>
    <polygon class="cls-fc925235-17" points="241.99 125.67 230.18 133.31 229.08 153.5 219.52 124.71 241.99 125.67"/>
    <polygon class="cls-fc925235-17" points="156.34 173.08 205.22 172.94 203.72 164.86 156.34 173.08"/>
    <polygon class="cls-fc925235-17" points="222.78 170.46 260.24 153.5 221.55 163.84 222.78 170.46"/>
    <path class="cls-fc925235-18" d="M217.44,120.35v0l-1,.18-2.87.42,0,.1-17.29,3.19-57,8.86,9.31,42.56,55.09-10.77-5.84-32,17.32-3.19,6.35,34.14,55-10.72L270,112.65ZM193,157.88l-37.41,7.39-5-25.2,38.59-5.66Zm73.51-11.76-37.4,7.38-5-25.19,38.59-5.66Z"/>
    <path class="cls-fc925235-19" d="M252.83,132a6.44,6.44,0,1,1-8.91-1.88A6.45,6.45,0,0,1,252.83,132Z"/>
    <path class="cls-fc925235-19" d="M187.86,142.69a6.45,6.45,0,1,1-8.92-1.88A6.45,6.45,0,0,1,187.86,142.69Z"/>
  </g>
</svg>